<?xml version="1.0" encoding="utf-8" standalone="yes"?>
<!DOCTYPE svg PUBLIC "-//W3C//DTD SVG 1.1//EN" "http://www.w3.org/Graphics/SVG/1.1/DTD/svg11.dtd">
<svg style="fill:none;stroke:none;fill-rule:evenodd;clip-rule:evenodd;stroke-linecap:round;stroke-linejoin:round;stroke-miterlimit:1.5;" version="1.1" xmlns="http://www.w3.org/2000/svg" xmlns:xlink="http://www.w3.org/1999/xlink" width="732" height="690" viewBox="0 0 732 690"><style class="text-font-style fontImports" data-font-family="Roboto">@import url(https://fonts.googleapis.com/css2?family=Roboto:wght@400;700&amp;amp;display=block);</style><rect id="" x="0" y="0" width="731.672" height="690" style="fill: #ffffff;"></rect><g id="items" style="isolation: isolate"><g id="blend" style="mix-blend-mode: normal"><g id="g-root-tf_hunbab1q85yxa-fill" data-item-order="-757280"><g id="tf_hunbab1q85yxa-fill-merged" stroke="none" fill="#ffffff" fill-opacity="1"><g><path d="M0 0 H731.67 V690 H0 V0"></path></g></g></g><g id="g-root-tf_hunbab1q85yxa-stroke" data-item-order="-757280"></g><g id="g-root-sy_5_Vector_4g2fhf1q87e9z-fill" data-item-order="-35415" transform="translate(264.9375, 212)"></g><g id="g-root-sy_5_Vector_4g2fhf1q87e9z-stroke" data-item-order="-35415" transform="translate(264.9375, 212)"><g id="sy_5_Vector_4g2fhf1q87e9z-stroke" fill="none" stroke-linecap="round" stroke-linejoin="round" stroke-miterlimit="4" stroke="#a3a3a3" stroke-width="2" stroke-opacity="1"><g><path d="M 10 322L 10 298M 10 226L 10 202M 10 130L 10 106M 10 34L 10 10"></path></g></g></g><g id="g-root-sy_5_line_4g2fhf1q87ea0-fill" data-item-order="-35411" transform="translate(264.9375, 596)"></g><g id="g-root-sy_5_line_4g2fhf1q87ea0-stroke" data-item-order="-35411" transform="translate(264.9375, 596)"><g id="sy_5_line_4g2fhf1q87ea0-stroke" fill="none" stroke-linecap="round" stroke-linejoin="round" stroke-miterlimit="4" stroke="#a3a3a3" stroke-width="2" stroke-opacity="1"><g><path d="M 10 44L 10 10"></path><path d="M 3.5 38L 10 44.5L 16.5 38" stroke-dasharray="none"></path></g></g></g><g id="g-root-cr_5_cr-big_4g2fhf1q87ea1-fill" data-item-order="-35408" transform="translate(228.9375, 524)"><g id="cr_5_cr-big_4g2fhf1q87ea1-fill-merged" stroke="none" fill="#e0cb15" fill-opacity="1"><g><path d="M10 46C10 65.882 26.118 82 46 82C65.882 82 82 65.882 82 46C82 26.118 65.882 10 46 10C26.118 10 10 26.118 10 46"></path></g></g></g><g id="g-root-cr_5_cr-big_4g2fhf1q87ea1-stroke" data-item-order="-35408" transform="translate(228.9375, 524)"><g id="cr_5_cr-big_4g2fhf1q87ea1-stroke" fill="none" stroke-linecap="round" stroke-linejoin="round" stroke-miterlimit="4" stroke="#ffffff" stroke-width="2" stroke-opacity="1"><g><path d="M 10 46C 10 65.882251 26.117749 82 46 82C 65.882251 82 82 65.882251 82 46C 82 26.117749 65.882251 10 46 10C 26.117749 10 10 26.117749 10 46Z"></path></g></g></g><g id="g-root-cr_4_cr-big_8xcz1q87f2a-fill" data-item-order="-35404" transform="translate(228.9375, 428)"><g id="cr_4_cr-big_8xcz1q87f2a-fill-merged" stroke="none" fill="#92bd39" fill-opacity="1"><g><path d="M10 46C10 65.882 26.118 82 46 82C65.882 82 82 65.882 82 46C82 26.118 65.882 10 46 10C26.118 10 10 26.118 10 46"></path></g></g></g><g id="g-root-cr_4_cr-big_8xcz1q87f2a-stroke" data-item-order="-35404" transform="translate(228.9375, 428)"><g id="cr_4_cr-big_8xcz1q87f2a-stroke" fill="none" stroke-linecap="round" stroke-linejoin="round" stroke-miterlimit="4" stroke="#ffffff" stroke-width="2" stroke-opacity="1"><g><path d="M 10 46C 10 65.882251 26.117749 82 46 82C 65.882251 82 82 65.882251 82 46C 82 26.117749 65.882251 10 46 10C 26.117749 10 10 26.117749 10 46Z"></path></g></g></g><g id="g-root-cr_3_cr-big_8xcz1q87f2b-fill" data-item-order="-35400" transform="translate(228.9375, 332)"><g id="cr_3_cr-big_8xcz1q87f2b-fill-merged" stroke="none" fill="#3cc583" fill-opacity="1"><g><path d="M10 46C10 65.882 26.118 82 46 82C65.882 82 82 65.882 82 46C82 26.118 65.882 10 46 10C26.118 10 10 26.118 10 46"></path></g></g></g><g id="g-root-cr_3_cr-big_8xcz1q87f2b-stroke" data-item-order="-35400" transform="translate(228.9375, 332)"><g id="cr_3_cr-big_8xcz1q87f2b-stroke" fill="none" stroke-linecap="round" stroke-linejoin="round" stroke-miterlimit="4" stroke="#ffffff" stroke-width="2" stroke-opacity="1"><g><path d="M 10 46C 10 65.882251 26.117749 82 46 82C 65.882251 82 82 65.882251 82 46C 82 26.117749 65.882251 10 46 10C 26.117749 10 10 26.117749 10 46Z"></path></g></g></g><g id="g-root-cr_2_cr-big_8xcz1q87f2c-fill" data-item-order="-35396" transform="translate(228.9375, 236)"><g id="cr_2_cr-big_8xcz1q87f2c-fill-merged" stroke="none" fill="#1eabda" fill-opacity="1"><g><path d="M10 46C10 65.882 26.118 82 46 82C65.882 82 82 65.882 82 46C82 26.118 65.882 10 46 10C26.118 10 10 26.118 10 46"></path></g></g></g><g id="g-root-cr_2_cr-big_8xcz1q87f2c-stroke" data-item-order="-35396" transform="translate(228.9375, 236)"><g id="cr_2_cr-big_8xcz1q87f2c-stroke" fill="none" stroke-linecap="round" stroke-linejoin="round" stroke-miterlimit="4" stroke="#ffffff" stroke-width="2" stroke-opacity="1"><g><path d="M 10 46C 10 65.882251 26.117749 82 46 82C 65.882251 82 82 65.882251 82 46C 82 26.117749 65.882251 10 46 10C 26.117749 10 10 26.117749 10 46Z"></path></g></g></g><g id="g-root-cr_1_cr-big_8xcz1q87f2d-fill" data-item-order="-35392" transform="translate(228.9375, 140)"><g id="cr_1_cr-big_8xcz1q87f2d-fill-merged" stroke="none" fill="#4e88e7" fill-opacity="1"><g><path d="M10 46C10 65.882 26.118 82 46 82C65.882 82 82 65.882 82 46C82 26.118 65.882 10 46 10C26.118 10 10 26.118 10 46"></path></g></g></g><g id="g-root-cr_1_cr-big_8xcz1q87f2d-stroke" data-item-order="-35392" transform="translate(228.9375, 140)"><g id="cr_1_cr-big_8xcz1q87f2d-stroke" fill="none" stroke-linecap="round" stroke-linejoin="round" stroke-miterlimit="4" stroke="#ffffff" stroke-width="2" stroke-opacity="1"><g><path d="M 10 46C 10 65.882251 26.117749 82 46 82C 65.882251 82 82 65.882251 82 46C 82 26.117749 65.882251 10 46 10C 26.117749 10 10 26.117749 10 46Z"></path></g></g></g><g id="g-root-tx_statethe_18f2foj1q87evf-fill" data-item-order="0" transform="translate(324.9375, 164)"><g id="tx_statethe_18f2foj1q87evf-fill-merged" stroke="none" fill="#484848" fill-opacity="1"><g><text style="font: 20px Roboto, sans-serif; white-space: pre;" transform="translate(10, 22)" font-size="20px" font-family="Roboto, sans-serif"><tspan x="2" y="11.5" dominant-baseline="ideographic">State the task in one sentence.</tspan></text></g></g></g><g id="g-root-tx_statethe_18f2foj1q87evf-stroke" data-item-order="0" transform="translate(324.9375, 164)"></g><g id="g-root-tx_pickoneu_qoew9v1q87e2w-fill" data-item-order="0" transform="translate(23.53125, 164)"><g id="tx_pickoneu_qoew9v1q87e2w-fill-merged" stroke="none" fill="#4e88e7" fill-opacity="1"><g><text style="font: bold 20px Roboto, sans-serif; white-space: pre;" transform="translate(203.40625, 22)" font-weight="bold" font-size="20px" font-family="Roboto, sans-serif"><tspan x="-191.41" y="11.5" dominant-baseline="ideographic">Pick one unit of work</tspan></text></g></g></g><g id="g-root-tx_pickoneu_qoew9v1q87e2w-stroke" data-item-order="0" transform="translate(23.53125, 164)"></g><g id="g-root-ic_read_1q8ucir1q88u8f-fill" data-item-order="0" transform="translate(240.9375, 248)"></g><g id="g-root-ic_read_1q8ucir1q88u8f-stroke" data-item-order="0" transform="translate(240.9375, 248)"><g id="ic_read_1q8ucir1q88u8f-stroke" fill="none" stroke-linecap="round" stroke-linejoin="round" stroke-miterlimit="4" stroke="#ffffff" stroke-width="2" stroke-opacity="1"><g><path d="M 34 50C 27.364 42 11 41.576 11 41.576L 11 47.675999C 19.602177 47.598404 27.880182 50.954235 34 57L 34 57C 40.118824 50.952728 48.397488 47.59663 57 47.676003L 57 41.573997C 57 41.573997 40.634003 42 34 50ZM 15 33.936001C 15 23.442589 23.50659 14.936001 34 14.936001C 44.493412 14.936001 53 23.442589 53 33.936001M 22.021999 39C 19.731319 33.565361 21.386097 27.269596 26.052998 23.663687C 30.719898 20.057777 37.229492 20.045288 41.910191 23.633266C 46.590893 27.221243 48.269814 33.510612 46 38.954002M 57 32.936001C 57 35.145142 55.209141 36.936001 53 36.936001L 53 26.936001C 55.209141 26.936001 57 28.726862 57 30.936001ZM 11 32.936001C 11 35.145142 12.790861 36.936001 15 36.936001L 15 26.936001C 12.790861 26.936001 11 28.726862 11 30.936001ZM 54 17L 54 27.066M 51 14C 51 15.656855 52.343147 17 54 17C 55.656857 17 57 15.656855 57 14C 57 12.343145 55.656857 11 54 11C 52.343147 11 51 12.343145 51 14Z"></path></g></g></g><g id="g-root-tx_rehydrat_v3lxb71q87ggf-fill" data-item-order="0" transform="translate(45.046875, 248)"><g id="tx_rehydrat_v3lxb71q87ggf-fill-merged" stroke="none" fill="#1eabda" fill-opacity="1"><g><text style="font: bold 20px Roboto, sans-serif; white-space: pre;" transform="translate(181.890625, 34)" font-weight="bold" font-size="20px" font-family="Roboto, sans-serif"><tspan x="-169.89" y="-0.5" dominant-baseline="ideographic">Rehydrate only the </tspan><tspan x="-159.41" y="23.5" dominant-baseline="ideographic">minimum context</tspan></text></g></g></g><g id="g-root-tx_rehydrat_v3lxb71q87ggf-stroke" data-item-order="0" transform="translate(45.046875, 248)"></g><g id="g-root-tx_decidewh_18f2foj1q87eve-fill" data-item-order="0" transform="translate(324.9375, 260)"><g id="tx_decidewh_18f2foj1q87eve-fill-merged" stroke="none" fill="#484848" fill-opacity="1"><g><text style="font: 20px Roboto, sans-serif; white-space: pre;" transform="translate(10, 22)" font-size="20px" font-family="Roboto, sans-serif"><tspan x="2" y="11.5" dominant-baseline="ideographic">Decide what the agent should read first.</tspan></text></g></g></g><g id="g-root-tx_decidewh_18f2foj1q87eve-stroke" data-item-order="0" transform="translate(324.9375, 260)"></g><g id="g-root-ic_targ_meu50j1q88ttt-fill" data-item-order="0" transform="translate(240.9375, 152)"></g><g id="g-root-ic_targ_meu50j1q88ttt-stroke" data-item-order="0" transform="translate(240.9375, 152)"><g id="ic_targ_meu50j1q88ttt-stroke" fill="none" stroke-linecap="round" stroke-linejoin="round" stroke-miterlimit="4" stroke="#ffffff" stroke-width="2" stroke-opacity="1"><g><path d="M 13.644 18.028C 13.642836 21.91028 16.789719 25.058107 20.671999 25.058107C 24.554279 25.058107 27.701164 21.91028 27.699999 18.028C 27.701164 14.14572 24.554279 10.997891 20.671999 10.997891C 16.789719 10.997891 13.642836 14.14572 13.644 18.028M 24.962 28.705999C 22.19043 27.192316 18.826122 27.252041 16.110025 28.863146C 13.393929 30.474251 11.728483 33.398018 11.728 36.556L 11.728 44.222L 15.774 44.222L 16.84 57L 24.506001 57M 47.200001 39.984001C 48.598122 45.418388 46.172527 51.114399 41.285744 53.872417C 36.398956 56.630432 30.269064 55.762993 26.339403 51.757362C 22.40974 47.751728 21.659821 41.60635 24.510895 36.773266C 27.361967 31.94018 33.103374 29.624084 38.509998 31.125999M 41.379997 43.096001C 41.379997 46.526791 38.598793 49.307999 35.167999 49.307999C 31.737207 49.307999 28.955999 46.526791 28.955999 43.096001C 28.955999 39.665207 31.737207 36.883999 35.167999 36.883999M 44.130001 33.912003L 35.503998 43.096001M 49.945999 27.804001L 49.939999 21.114L 43.830002 26.736L 44.130001 33.912003M 49.945999 27.804001L 56.271999 27.804001L 50.650002 33.912003L 44.130001 33.912003"></path></g></g></g><g id="g-root-ic_appr_vcckir1q87dvp-fill" data-item-order="0" transform="translate(240.9375, 344)"></g><g id="g-root-ic_appr_vcckir1q87dvp-stroke" data-item-order="0" transform="translate(240.9375, 344)"><g id="ic_appr_vcckir1q87dvp-stroke" fill="none" stroke-linecap="round" stroke-linejoin="round" stroke-miterlimit="4" stroke="#ffffff" stroke-width="2" stroke-opacity="1"><g><path d="M 42.84 19.5C 40.988853 18.581583 39.025536 17.909214 37 17.5L 37 13C 37 11.895431 36.104568 11 35 11L 33 11C 31.89543 11 31 11.895431 31 13L 31 17.5C 28.974466 17.909214 27.01115 18.581583 25.16 19.5L 22 16.32C 21.219925 15.544553 19.960075 15.544553 19.18 16.32L 16.32 19.16C 15.941375 19.535534 15.728403 20.046726 15.728403 20.58C 15.728403 21.113276 15.941375 21.624466 16.32 22L 19.5 25.16C 18.581583 27.01115 17.909214 28.974466 17.5 31.000002L 13 31C 11.895431 31 11 31.89543 11 33L 11 35C 11 36.104568 11.895431 37 13 37L 17.5 37C 17.909214 39.025536 18.581583 40.988853 19.5 42.840004L 16.32 46C 15.544553 46.780075 15.544553 48.039925 16.32 48.82L 19.139999 51.66C 19.515533 52.038624 20.026726 52.251598 20.560001 52.251598C 21.093275 52.251598 21.604465 52.038624 21.98 51.66L 25.16 48.48C 27.01115 49.398418 28.974466 50.070789 31.000002 50.480003L 31 55C 31 56.104568 31.89543 57 33 57L 35 57C 36.104568 57 37 56.104568 37 55L 37 50.5C 39.025536 50.09079 40.988853 49.418419 42.840004 48.500004L 46 51.68C 46.780075 52.455448 48.039925 52.455448 48.82 51.68L 51.66 48.84C 52.435448 48.059925 52.435448 46.800076 51.66 46.02L 48.48 42.84C 49.398418 40.988853 50.070789 39.025536 50.480003 37L 55 37C 56.104568 37 57 36.104568 57 35L 57 33C 57 31.89543 56.104568 31 55 31L 50.5 31C 50.259998 30 49.939999 28.700001 49.52 27.5M 57 11L 35.48 37.200001C 35.128273 37.67128 34.586952 37.963886 34 38C 33.414814 38.015984 32.852005 37.77478 32.459999 37.34L 26 30"></path></g></g></g><g id="g-root-tx_establis_v3lxb71q87gge-fill" data-item-order="0" transform="translate(14, 344)"><g id="tx_establis_v3lxb71q87gge-fill-merged" stroke="none" fill="#3cc583" fill-opacity="1"><g><text style="font: bold 20px Roboto, sans-serif; white-space: pre;" transform="translate(212.9375, 34)" font-weight="bold" font-size="20px" font-family="Roboto, sans-serif"><tspan x="-200.94" y="-0.5" dominant-baseline="ideographic">Establish ground truth </tspan><tspan x="-158.86" y="23.5" dominant-baseline="ideographic">(verification first)</tspan></text></g></g></g><g id="g-root-tx_establis_v3lxb71q87gge-stroke" data-item-order="0" transform="translate(14, 344)"></g><g id="g-root-tx_agreeonc_1hapfxf1q87e2p-fill" data-item-order="0" transform="translate(324.9375, 344)"><g id="tx_agreeonc_1hapfxf1q87e2p-fill-merged" stroke="none" fill="#484848" fill-opacity="1"><g><text style="font: 20px Roboto, sans-serif; white-space: pre;" transform="translate(10, 34)" font-size="20px" font-family="Roboto, sans-serif"><tspan x="2" y="-0.5" dominant-baseline="ideographic">Agree on commands/checklists to prove </tspan><tspan x="2" y="23.5" dominant-baseline="ideographic">progress.</tspan></text></g></g></g><g id="g-root-tx_agreeonc_1hapfxf1q87e2p-stroke" data-item-order="0" transform="translate(324.9375, 344)"></g><g id="g-root-ic_8_zn69yb1q87dor-fill" data-item-order="0" transform="translate(240.9375, 440)"></g><g id="g-root-ic_8_zn69yb1q87dor-stroke" data-item-order="0" transform="translate(240.9375, 440)"><g id="ic_8_zn69yb1q87dor-stroke" fill="none" stroke-linecap="round" stroke-linejoin="round" stroke-miterlimit="4" stroke="#ffffff" stroke-width="2" stroke-opacity="1"><g><path d="M 11.5 11.5L 11.5 56.5L 56.5 56.5M 37.5 20.5L 20.5 20.5C 19.9 20.5 19.5 20.1 19.5 19.5L 19.5 15.5C 19.5 14.9 19.9 14.5 20.5 14.5L 37.5 14.5C 38.099998 14.5 38.5 14.9 38.5 15.5L 38.5 19.5C 38.5 20.1 38.099998 20.5 37.5 20.5ZM 55.5 33.5L 38.5 33.5C 37.900002 33.5 37.5 33.099998 37.5 32.5L 37.5 28.5C 37.5 27.9 37.900002 27.5 38.5 27.5L 55.5 27.5C 56.099998 27.5 56.5 27.9 56.5 28.5L 56.5 32.5C 56.5 33.099998 56.099998 33.5 55.5 33.5ZM 35.5 44.5L 18.5 44.5C 17.9 44.5 17.5 44.099998 17.5 43.5L 17.5 39.5C 17.5 38.900002 17.9 38.5 18.5 38.5L 35.5 38.5C 36.099998 38.5 36.5 38.900002 36.5 39.5L 36.5 43.5C 36.5 44.099998 36.099998 44.5 35.5 44.5ZM 55.5 50.5L 45.5 50.5C 44.900002 50.5 44.5 50.099998 44.5 49.5L 44.5 45.5C 44.5 44.900002 44.900002 44.5 45.5 44.5L 55.5 44.5C 56.099998 44.5 56.5 44.900002 56.5 45.5L 56.5 49.5C 56.5 50.099998 56.099998 50.5 55.5 50.5ZM 38.5 17.5L 46.5 17.5C 47.099998 17.5 47.5 17.9 47.5 18.5L 47.5 27.5"></path></g></g></g><g id="g-root-tx_writeati_13z8xk31q87fnp-fill" data-item-order="0" transform="translate(22.875, 440)"><g id="tx_writeati_13z8xk31q87fnp-fill-merged" stroke="none" fill="#92bd39" fill-opacity="1"><g><text style="font: bold 20px Roboto, sans-serif; white-space: pre;" transform="translate(204.0625, 34)" font-weight="bold" font-size="20px" font-family="Roboto, sans-serif"><tspan x="-192.06" y="-0.5" dominant-baseline="ideographic">Write a tiny plan (and </tspan><tspan x="-48.35" y="23.5" dominant-baseline="ideographic">stop)</tspan></text></g></g></g><g id="g-root-tx_writeati_13z8xk31q87fnp-stroke" data-item-order="0" transform="translate(22.875, 440)"></g><g id="g-root-tx_produce3_1hapfxf1q87e2o-fill" data-item-order="0" transform="translate(324.9375, 452)"><g id="tx_produce3_1hapfxf1q87e2o-fill-merged" stroke="none" fill="#484848" fill-opacity="1"><g><text style="font: 20px Roboto, sans-serif; white-space: pre;" transform="translate(10, 22)" font-size="20px" font-family="Roboto, sans-serif"><tspan x="2" y="11.5" dominant-baseline="ideographic">Produce 3–7 steps max.</tspan></text></g></g></g><g id="g-root-tx_produce3_1hapfxf1q87e2o-stroke" data-item-order="0" transform="translate(324.9375, 452)"></g><g id="g-root-ic_warn_qoew9v1q87e2x-fill" data-item-order="0" transform="translate(240.9375, 536)"></g><g id="g-root-ic_warn_qoew9v1q87e2x-stroke" data-item-order="0" transform="translate(240.9375, 536)"><g id="ic_warn_qoew9v1q87e2x-stroke" fill="none" stroke-linecap="round" stroke-linejoin="round" stroke-miterlimit="4" stroke="#ffffff" stroke-width="2" stroke-opacity="1"><g><path d="M 11.5 11.5L 11.5 56.5M 42.5 11.5L 42.5 26.5M 26.5 11.5L 26.5 16.5M 26.5 38.5L 26.5 43.5M 26.5 51.5L 26.5 56.5M 18.900021 56.5L 18.900021 41.299999C 18.900021 39.099998 19.69998 37.099998 21.29998 35.700001L 36.5 20.5M 30.700001 20.5L 36.5 20.5L 36.5 26.1M 44.799999 50.699799C 45.200001 50.699799 45.599998 51.0998 45.599998 51.499802C 45.599998 51.899799 45.200001 52.299801 44.799999 52.299801M 44.800201 50.699799C 44.4002 50.699799 44.000401 51.0998 44.000401 51.499802C 44.000401 51.899799 44.4002 52.299801 44.800201 52.299801M 44.799999 45.699799L 44.799999 42.699799M 46.300201 34.299801C 45.9002 33.699799 45.300201 33.299801 44.700199 33.299801C 44.100201 33.299801 43.299999 33.699799 43.099998 34.299801L 33.300201 54.299801C 33.300201 54.299801 33.099998 54.699799 33.099998 54.899799C 33.099998 55.699799 33.9002 56.499802 34.700199 56.499802L 54.900002 56.499802C 55.700001 56.499802 56.500198 55.699799 56.500198 54.899799C 56.500198 54.699799 56.300201 54.299801 56.300201 54.299801L 46.300201 34.299801Z"></path></g></g></g><g id="g-root-tx_setguard_13z8xk31q87fno-fill" data-item-order="0" transform="translate(18.5234375, 536)"><g id="tx_setguard_13z8xk31q87fno-fill-merged" stroke="none" fill="#e0cb15" fill-opacity="1"><g><text style="font: bold 20px Roboto, sans-serif; white-space: pre;" transform="translate(208.4140625, 34)" font-weight="bold" font-size="20px" font-family="Roboto, sans-serif"><tspan x="-196.41" y="-0.5" dominant-baseline="ideographic">Set guardrails for this </tspan><tspan x="-71.43" y="23.5" dominant-baseline="ideographic">session</tspan></text></g></g></g><g id="g-root-tx_setguard_13z8xk31q87fno-stroke" data-item-order="0" transform="translate(18.5234375, 536)"></g><g id="g-root-tx_pickcons_1lpwgyr1q87gg7-fill" data-item-order="0" transform="translate(324.9375, 548)"><g id="tx_pickcons_1lpwgyr1q87gg7-fill-merged" stroke="none" fill="#484848" fill-opacity="1"><g><text style="font: 20px Roboto, sans-serif; white-space: pre;" transform="translate(10, 22)" font-size="20px" font-family="Roboto, sans-serif"><tspan x="2" y="11.5" dominant-baseline="ideographic">Pick constraints to prevent failure modes.</tspan></text></g></g></g><g id="g-root-tx_pickcons_1lpwgyr1q87gg7-stroke" data-item-order="0" transform="translate(324.9375, 548)"></g><g id="g-root-tx_prefligh_1q5pz371q87fny-fill" data-item-order="0" transform="translate(119.61328125, 38)"><g id="tx_prefligh_1q5pz371q87fny-fill-merged" stroke="none" fill="#484848" fill-opacity="1"><g><text style="font: bold 25px Roboto, sans-serif; white-space: pre;" transform="translate(257.32421875, 25)" font-weight="bold" font-size="25px" font-family="Roboto, sans-serif"><tspan x="-245.32" y="14.5" dominant-baseline="ideographic">Preflight Checklist for Effective AI Sessions</tspan></text></g></g></g><g id="g-root-tx_prefligh_1q5pz371q87fny-stroke" data-item-order="0" transform="translate(119.61328125, 38)"></g></g></g><path id="w144uxur1sg6yo5" d="M65.283 12.757a.35.35 0 0 0 .584.157l5.203-5.141-6.183 3.523.396 1.461zm-2.216-11.7a.35.35 0 0 0-.522.305v3.111l3.276-1.868-2.754-1.548zm3.728 2.105l-4.25 2.421v2.445l6.391-3.644-2.141-1.222zm4.708 3.303a.35.35 0 0 0 0-.609l-1.592-.9-7.365 4.199v1.782a.35.35 0 0 0 .523.305l8.435-4.777z M44.542 2.513c0-.433.355-.783.792-.783s.792.35.792.783-.355.783-.792.783-.792-.35-.792-.783zm59.171 0c0-.433.355-.783.792-.783s.792.35.792.783-.355.783-.792.783-.792-.35-.792-.783zm-85.951 7.636h-1.27v-.487c-.276.201-.864.609-1.881.609-1.202 0-2.274-.794-2.137-2.078.118-1.106 1.153-1.584 1.848-1.727l2.17-.345c0-.539-.29-.956-1.064-1.006s-1.21.305-1.571 1.017l-1.124-.605c1.218-2.631 5.029-1.764 5.029.414v4.207zm-1.27-2.86c.006.396-.062 1.112-.819 1.59-.587.37-1.841.299-1.903-.395-.049-.555.461-.791.906-.898l1.816-.297zm72.662 2.86h-1.27v-.487c-.276.201-.864.609-1.881.609-1.202 0-2.274-.794-2.137-2.078.118-1.106 1.153-1.584 1.848-1.727l2.17-.345c0-.539-.29-.956-1.064-1.006s-1.21.305-1.571 1.017l-1.124-.605c1.218-2.631 5.029-1.764 5.029.414v4.207zm-1.27-2.86c.006.396-.062 1.112-.82 1.59-.587.37-1.841.299-1.903-.395-.049-.555.461-.791.906-.898l1.816-.297zM99.096 10.149H97.85v-8.45h1.246v4.895l2.68-2.559h1.738l-2.633 2.535 2.715 3.578h-1.556l-2.077-2.707-.867.844v1.863zm6.053-6.114h-1.255v6.113h1.255V4.035zm-59.2 0h-1.255v6.113h1.255V4.035zm5.584 6.113V1.697h1.255v2.695c.361-.346 1-.485 1.47-.485 1.452 0 2.477 1.082 2.457 2.448v3.792h-1.27v-3.68c0-.408-.214-1.339-1.315-1.339-.968 0-1.342.756-1.342 1.339v3.681h-1.255zm-4.76-4.894V4.039h.621a.45.45 0 0 0 .45-.45v-.855h1.251v1.305h1.309v1.215h-1.309v3.109c0 .293.105.664.648.664.365 0 .531-.035.736-.07v1.137s-.361.113-.857.113c-1.398 0-1.777-1.051-1.777-1.788V5.254h-1.071zM36.528 4.039h-1.394l2.191 6.106h1.125l1.234-3.918 1.238 3.918h1.129l2.188-6.106h-1.383l-1.359 3.93-1.256-3.93h-1.124l-1.242 3.957-1.348-3.957zM26.212 7.141c-.02 1.566 1.187 3.129 3.223 3.129 1.566 0 2.383-.918 2.734-1.719L31.172 8c-.315.399-.801 1.094-1.738 1.094-1.145 0-1.825-.781-1.891-1.52h4.625c.074-.284.148-.995-.03-1.559-.336-1.064-1.221-2.102-2.839-2.102s-3.088 1.152-3.088 3.227zm1.363-.75h3.348c-.055-.43-.566-1.301-1.623-1.301a1.79 1.79 0 0 0-1.725 1.301zm-8.758.75c.038 1.758 1.277 3.133 3.145 3.133 1.074 0 1.723-.477 1.961-.672v.547h1.242V1.703h-1.258v2.888c-.414-.36-1.062-.68-1.93-.68-1.91 0-3.198 1.473-3.16 3.23zm1.309-.08c0 1.119.723 1.978 1.836 1.978a1.88 1.88 0 0 0 1.94-1.904c0-1.371-1.011-1.99-1.972-1.99s-1.805.798-1.805 1.916zm76.683-.028C96.771 5.275 95.532 3.9 93.664 3.9c-1.074 0-1.723.477-1.961.672v-.547h-1.242v8.22h1.258V9.583c.414.36 1.063.68 1.93.68 1.91 0 3.198-1.473 3.16-3.23zm-1.309.08c0-1.119-.723-1.978-1.836-1.978a1.88 1.88 0 0 0-1.94 1.904c0 1.371 1.011 1.99 1.972 1.99S95.5 8.231 95.5 7.113zM106.441 10.173V4.036h1.254v.382c.361-.346 1-.485 1.47-.485 1.452 0 2.477 1.082 2.457 2.448v3.792h-1.27V6.492c0-.408-.214-1.339-1.315-1.339-.969 0-1.342.756-1.342 1.339v3.681h-1.254zm-30.383-.021V1.824h1.084l4.215 5.777V1.824h1.32v8.328h-1.094l-4.207-5.796v5.796h-1.319zM5.24 10.149H4V2.377h1.014l2.664 3.597 2.654-3.592h1.03v7.766h-1.256V4.762L7.678 8.068 5.24 4.742v5.407z" transform="translate(595.671875, 656)" fill="#80808088" stroke="none"></path></svg>