<?xml version="1.0" encoding="utf-8" standalone="yes"?>
<!DOCTYPE svg PUBLIC "-//W3C//DTD SVG 1.1//EN" "http://www.w3.org/Graphics/SVG/1.1/DTD/svg11.dtd">
<svg style="fill:none;stroke:none;fill-rule:evenodd;clip-rule:evenodd;stroke-linecap:round;stroke-linejoin:round;stroke-miterlimit:1.5;" version="1.1" xmlns="http://www.w3.org/2000/svg" xmlns:xlink="http://www.w3.org/1999/xlink" width="648" height="504" viewBox="0 0 648 504"><style class="text-font-style fontImports" data-font-family="Roboto">@import url(https://fonts.googleapis.com/css2?family=Roboto:wght@400;700&amp;amp;display=block);</style><rect id="" x="0" y="0" width="648" height="504" style="fill: #ffffff;"></rect><g id="items" style="isolation: isolate"><g id="blend" style="mix-blend-mode: normal"><g id="g-root-tf_m9uhz91rbyrr6-fill" data-item-order="-489888"><g id="tf_m9uhz91rbyrr6-fill-merged" stroke="none" fill="#ffffff" fill-opacity="1"><g><path d="M0 0 H648 V504 H0 V0"></path></g></g></g><g id="g-root-sy_-1_Vector_4pfpfp1rbysjl-fill" data-item-order="-244787" transform="translate(233.75796508789062, 376.968994140625)"></g><g id="g-root-sy_-1_Vector_1_1uuwr5x1rbyt56-fill" data-item-order="-244783" transform="translate(344, 186.01202392578125)"></g><g id="g-root-sy_-1_Vector_2_1uuwr5x1rbyt57-fill" data-item-order="-244779" transform="translate(200.0040283203125, 186.0159912109375)"></g><g id="g-root-tx_specdriv_1q5q4qt1rc05c4-fill" data-item-order="0" transform="translate(164, 38)"><g id="tx_specdriv_1q5q4qt1rc05c4-fill-merged" stroke="none" fill="#484848" fill-opacity="1"><g><text style="font: bold 20px Roboto, sans-serif; white-space: pre;" transform="translate(160, 22)" font-weight="bold" font-size="20px" font-family="Roboto, sans-serif"><tspan x="-144.11" y="11.5" dominant-baseline="ideographic">Spec-Driven Development Cycle</tspan></text></g></g></g><g id="g-root-tx_definesp_4loux11rc1m2q-fill" data-item-order="0" transform="translate(254, 86)"><g id="tx_definesp_4loux11rc1m2q-fill-merged" stroke="none" fill="#92bd39" fill-opacity="1"><g><text style="font: 12px Roboto, sans-serif; white-space: pre;" transform="translate(70, 22)" font-size="12px" font-family="Roboto, sans-serif"><tspan x="-53.03" y="7" dominant-baseline="ideographic">Define Specification</tspan></text></g></g></g><g id="g-root-tx_humancre_4loux11rc1m2r-fill" data-item-order="0" transform="translate(254, 110)"><g id="tx_humancre_4loux11rc1m2r-fill-merged" stroke="none" fill="#484848" fill-opacity="1"><g><text style="font: 10.5px Roboto, sans-serif; white-space: pre;" transform="translate(70, 28)" font-size="10.5px" font-family="Roboto, sans-serif"><tspan x="-56.21" y="-6" dominant-baseline="ideographic">Human creates detailed </tspan><tspan x="-57.5" y="6" dominant-baseline="ideographic">requirements document,</tspan><tspan x="-56.74" y="18" dominant-baseline="ideographic">often with AI assistance</tspan></text></g></g></g><g id="g-root-ic_pape_1q5q4qt1rc05c5-fill" data-item-order="0" transform="translate(296, 164)"></g><g id="g-root-ic_robo_1lw5dhh1rc1l34-fill" data-item-order="0" transform="translate(272, 248)"></g><g id="g-root-ic_sear_1umsl1h1rc1k3t-fill" data-item-order="0" transform="translate(200, 332)"></g><g id="g-root-ic_robo_4kfwqt1rc06iv-fill" data-item-order="0" transform="translate(392, 332)"></g><g id="g-root-tx_verifyim_1qbyvlx1rc1kau-fill" data-item-order="0" transform="translate(50, 338)"><g id="tx_verifyim_1qbyvlx1rc1kau-fill-merged" stroke="none" fill="#e55753" fill-opacity="1"><g><text style="font: 12px Roboto, sans-serif; white-space: pre;" transform="translate(142, 22)" font-size="12px" font-family="Roboto, sans-serif"><tspan x="-119.65" y="7" dominant-baseline="ideographic">Verify Implementation</tspan></text></g></g></g><g id="g-root-tx_executei_1ursdqd1rc1jik-fill" data-item-order="0" transform="translate(446, 338)"><g id="tx_executei_1ursdqd1rc1jik-fill-merged" stroke="none" fill="#de8431" fill-opacity="1"><g><text style="font: 12px Roboto, sans-serif; white-space: pre;" transform="translate(10, 22)" font-size="12px" font-family="Roboto, sans-serif"><tspan x="2" y="7" dominant-baseline="ideographic">Execute Implementation</tspan></text></g></g></g><g id="g-root-tx_humanora_1qbyvlx1rc1kav-fill" data-item-order="0" transform="translate(62, 362)"><g id="tx_humanora_1qbyvlx1rc1kav-fill-merged" stroke="none" fill="#484848" fill-opacity="1"><g><text style="font: 10.5px Roboto, sans-serif; white-space: pre;" transform="translate(130, 22)" font-size="10.5px" font-family="Roboto, sans-serif"><tspan x="-112.85" y="0" dominant-baseline="ideographic">Human or agent checks </tspan><tspan x="-61.52" y="12" dominant-baseline="ideographic">against spec</tspan></text></g></g></g><g id="g-root-tx_aiagenti_1ursdqd1rc1jil-fill" data-item-order="0" transform="translate(446, 362)"><g id="tx_aiagenti_1ursdqd1rc1jil-fill-merged" stroke="none" fill="#484848" fill-opacity="1"><g><text style="font: 10.5px Roboto, sans-serif; white-space: pre;" transform="translate(10, 22)" font-size="10.5px" font-family="Roboto, sans-serif"><tspan x="2" y="0" dominant-baseline="ideographic">AI agent implements changes </tspan><tspan x="2" y="12" dominant-baseline="ideographic">based on spec</tspan></text></g></g></g><g id="g-root-tf_m9uhz91rbyrr6-stroke" data-item-order="-489888"></g><g id="g-root-sy_-1_Vector_4pfpfp1rbysjl-stroke" data-item-order="-244787" transform="translate(233.75796508789062, 376.968994140625)"><g id="sy_-1_Vector_4pfpfp1rbysjl-stroke" fill="none" stroke-linecap="round" stroke-linejoin="round" stroke-miterlimit="4" stroke="#484848" stroke-width="2" stroke-opacity="1"><g><path d="M 170.49 10C 163.56 16.86 155.76 22.84 147.25 27.75C 138.73 32.67 129.65 36.44 120.24 39.01C 110.51 41.66 100.42 43.03 90.25 43.03C 80.07 43.03 69.98 41.66 60.24 39.01C 50.84 36.44 41.76 32.67 33.25 27.75C 25.31 23.17 17.99 17.67 11.43 11.39"></path><path d="M 20.3 10.5L 11.1 11L 11.7 20.2" stroke-dasharray="none"></path></g></g></g><g id="g-root-sy_-1_Vector_1_1uuwr5x1rbyt56-stroke" data-item-order="-244783" transform="translate(344, 186.01202392578125)"><g id="sy_-1_Vector_1_1uuwr5x1rbyt56-stroke" fill="none" stroke-linecap="round" stroke-linejoin="round" stroke-miterlimit="4" stroke="#484848" stroke-width="2" stroke-opacity="1"><g><path d="M 9.999939 10C 19.409939 12.57 28.489939 16.34 36.999939 21.26C 45.519939 26.17 53.329939 32.15 60.249939 39.01C 67.419939 46.12 73.639939 54.17 78.729939 62.98C 83.819939 71.8 87.679939 81.22 90.249939 90.98C 92.729939 100.4 93.999939 110.15 93.999939 119.98C 93.999939 129.15 92.899939 138.24 90.739939 147.06"></path><path d="M 85.499939 139.9L 90.599939 147.5L 98.199939 142.5" stroke-dasharray="none"></path></g></g></g><g id="g-root-sy_-1_Vector_2_1uuwr5x1rbyt57-stroke" data-item-order="-244779" transform="translate(200.0040283203125, 186.0159912109375)"><g id="sy_-1_Vector_2_1uuwr5x1rbyt57-stroke" fill="none" stroke-linecap="round" stroke-linejoin="round" stroke-miterlimit="4" stroke="#484848" stroke-width="2" stroke-opacity="1"><g><path d="M 92.07 10.54C 83.35 13.09 74.93 16.67 67 21.25C 58.48 26.17 50.67 32.15 43.75 39.01C 36.58 46.12 30.36 54.17 25.27 62.98C 20.18 71.8 16.32 81.22 13.75 90.98C 11.27 100.4 10 110.15 10 119.98C 10 129.81 11.27 139.56 13.75 148.99"></path><path d="M 88.5 18.7L 92.6 10.5L 84.4 6.4" stroke-dasharray="none"></path></g></g></g><g id="g-root-tx_specdriv_1q5q4qt1rc05c4-stroke" data-item-order="0" transform="translate(164, 38)"></g><g id="g-root-tx_definesp_4loux11rc1m2q-stroke" data-item-order="0" transform="translate(254, 86)"></g><g id="g-root-tx_humancre_4loux11rc1m2r-stroke" data-item-order="0" transform="translate(254, 110)"></g><g id="g-root-ic_pape_1q5q4qt1rc05c5-stroke" data-item-order="0" transform="translate(296, 164)"><g id="ic_pape_1q5q4qt1rc05c5-stroke" fill="none" stroke-linecap="round" stroke-linejoin="round" stroke-miterlimit="4" stroke="#92bd39" stroke-width="2" stroke-opacity="1"><g><path d="M 28.809999 30.3715L 23.506001 32.493999L 25.6285 27.190001L 39.4165 13.401999L 42.598 16.5835L 28.809999 30.3715ZM 42.598 16.5835L 39.4165 13.401999L 41.008003 11.8105C 41.572918 11.225599 42.409477 10.991025 43.19614 11.196935C 43.982807 11.402844 44.597157 12.017195 44.803066 12.80386C 45.008976 13.590525 44.774399 14.427082 44.189503 14.992001ZM 25.6285 27.190001L 28.809999 30.3715M 39.4165 13.401999C 38.223896 12.209678 36.290604 12.209678 35.098 13.402L 31.75 16.75L 30.25 16.75M 44.189499 11.8105L 45.25 10.75M 23.506001 32.493999L 22 34M 30.25 13.75L 13.75 13.75C 12.093145 13.75 10.75 15.093145 10.75 16.75L 10.75 42.25C 10.75 43.906857 12.093145 45.25 13.75 45.25L 28 45.25L 36.25 37L 36.25 28M 28 45.25L 28 38.5C 28 37.671574 28.671572 37 29.5 37L 36.25 37"></path></g></g></g><g id="g-root-ic_robo_1lw5dhh1rc1l34-stroke" data-item-order="0" transform="translate(272, 248)"><g id="ic_robo_1lw5dhh1rc1l34-stroke" fill="none" stroke-linecap="round" stroke-linejoin="round" stroke-miterlimit="4" stroke="#484848" stroke-width="2" stroke-opacity="1"><g><path d="M 13.390625 32.6954L 13.390625 16.890625C 13.390625 14.957645 14.957645 13.390625 16.890625 13.390625L 32.69603 13.390625M 13.390625 71.304947L 13.390625 87.10955C 13.390625 89.042595 14.95761 90.60955 16.890625 90.60955L 32.69603 90.60955M 90.61235 32.6954L 90.61235 16.890625C 90.61235 14.957645 89.045403 13.390625 87.11235 13.390625L 71.306694 13.390625M 90.61235 71.304947L 90.61235 87.10955C 90.61235 89.042595 89.045403 90.60955 87.11235 90.60955L 71.306694 90.60955M 39.837498 38.3815L 64.166 38.3815C 64.166 38.3815 72.916 38.3815 72.916 47.1315L 72.916 62.171001C 72.916 62.171001 72.916 70.920998 64.166 70.920998L 39.837498 70.920998C 39.837498 70.920998 31.0875 70.920998 31.0875 62.171001L 31.0875 47.1315C 31.0875 47.1315 31.0875 38.3815 39.837498 38.3815M 10 10M 52 25.547874L 52 38.382828M 10 10M 44.500969 50.6553L 44.500969 58.658051M 10 10M 59.505749 50.6553L 59.505749 58.658051"></path></g></g></g><g id="g-root-ic_sear_1umsl1h1rc1k3t-stroke" data-item-order="0" transform="translate(200, 332)"><g id="ic_sear_1umsl1h1rc1k3t-stroke" fill="none" stroke-linecap="round" stroke-linejoin="round" stroke-miterlimit="4" stroke="#e55753" stroke-width="2" stroke-opacity="1"><g><path d="M 19 25.043501C 19 28.795446 22.041553 31.837 25.793499 31.837C 29.545446 31.837 32.586998 28.795446 32.586998 25.043499C 32.586998 21.291553 29.545446 18.25 25.793499 18.25C 22.041553 18.25 19 21.291553 19 25.043499ZM 35.5 34.75L 30.598 29.848M 12.25 15.6625L 12.25 27.118C 12.340281 34.871712 17.264956 41.743126 24.578499 44.32L 26.26 44.941002C 27.383324 45.353523 28.616674 45.353523 29.74 44.940998L 31.421501 44.32C 38.735046 41.743126 43.659718 34.871712 43.749996 27.118L 43.75 15.6625C 43.746918 14.742543 43.195831 13.912958 42.348999 13.5535C 37.805191 11.656981 32.923492 10.703197 28 10.75C 23.076506 10.703197 18.194809 11.656981 13.651 13.5535C 12.804171 13.912958 12.25308 14.742543 12.25 15.6625Z"></path></g></g></g><g id="g-root-ic_robo_4kfwqt1rc06iv-stroke" data-item-order="0" transform="translate(392, 332)"><g id="ic_robo_4kfwqt1rc06iv-stroke" fill="none" stroke-linecap="round" stroke-linejoin="round" stroke-miterlimit="4" stroke="#de8431" stroke-width="2" stroke-opacity="1"><g><path d="M 27.73345 24.484375L 19.110565 24.484375C 16.51198 24.484375 14.47024 26.340549 13.913395 28.75345L 11.31478 40.2616C 10.943551 42.117699 12.05725 44.1595 13.913395 44.53075C 15.212695 44.901852 16.326355 44.53075 17.254435 43.602547L 20.59549 39.333549L 33.772449 39.333549L 37.113552 43.602547C 38.041603 44.53075 39.15535 44.901852 40.454651 44.53075C 42.310753 44.1595 43.4245 42.117699 43.053249 40.2616L 40.735153 29.995899M 21.522461 29.3125L 21.522461 34.880951M 18.925301 32.101601L 24.493721 32.101601M 35.177498 15.1915L 41.7565 15.1915C 41.7565 15.1915 44.7565 15.1915 44.7565 18.1915L 44.7565 21.977501C 44.7565 21.977501 44.7565 24.977499 41.7565 24.977499L 35.177498 24.977499C 35.177498 24.977499 32.177498 24.977499 32.177498 21.977501L 32.177498 18.1915C 32.177498 18.1915 32.177498 15.1915 35.177498 15.1915M 10 10M 38.466251 11.331644L 38.466251 15.19141M 10 10M 36.405251 19.214334L 36.405251 20.957035M 10 10M 40.528751 19.214334L 40.528751 20.957035M 34.080551 29.2819C 34.080551 30.026649 34.683548 30.631899 35.43055 30.631899C 36.175301 30.631899 36.780552 30.0289 36.780552 29.2819C 36.780552 28.534901 36.177551 27.929649 35.43055 27.929649C 34.685799 27.929649 34.080551 28.53265 34.080551 29.27965L 34.080551 29.2819ZM 30.248499 34.039749C 30.248499 34.7845 30.8515 35.389751 31.598499 35.389751C 32.34325 35.389751 32.948502 34.786751 32.948502 34.039749C 32.948502 33.292747 32.345501 32.6875 31.598499 32.6875C 30.85375 32.6875 30.248499 33.290501 30.248499 34.037498L 30.248499 34.039749Z"></path></g></g></g><g id="g-root-tx_verifyim_1qbyvlx1rc1kau-stroke" data-item-order="0" transform="translate(50, 338)"></g><g id="g-root-tx_executei_1ursdqd1rc1jik-stroke" data-item-order="0" transform="translate(446, 338)"></g><g id="g-root-tx_humanora_1qbyvlx1rc1kav-stroke" data-item-order="0" transform="translate(62, 362)"></g><g id="g-root-tx_aiagenti_1ursdqd1rc1jil-stroke" data-item-order="0" transform="translate(446, 362)"></g></g></g></svg>